<svg width="72" height="98" viewBox="0 0 72 98" fill="none" xmlns="http://www.w3.org/2000/svg">
<mask id="mask0_196_4997" style="mask-type:alpha" maskUnits="userSpaceOnUse" x="0" y="0" width="72" height="98">
<rect width="72" height="98" fill="#D9D9D9"/>
</mask>
<g mask="url(#mask0_196_4997)">
<g filter="url(#filter0_dd_196_4997)">
<path d="M2.21436 68.5962L36.2716 81.8942V82.7238L2.21436 69.4259V68.5962Z" fill="#00E0FF" stroke="#93F2FF" stroke-width="0.5"/>
<path d="M70.4833 68.5976L36.7716 81.8936V82.7225L70.4833 69.4265V68.5976Z" fill="#68ECFF" stroke="#B7F6FF" stroke-width="0.5"/>
</g>
<g style="mix-blend-mode:plus-lighter" filter="url(#filter1_f_196_4997)">
<path d="M2.21436 68.5962L36.2716 81.8942V82.7238L2.21436 69.4259V68.5962Z" fill="#0057FF" stroke="#93F2FF" stroke-width="0.5"/>
<path d="M70.4833 68.5976L36.7716 81.8936V82.7225L70.4833 69.4265V68.5976Z" fill="#0057FF" stroke="#B7F6FF" stroke-width="0.5"/>
</g>
<g opacity="0.15" filter="url(#filter2_f_196_4997)">
<path d="M36.4186 86.1355L2.28969 72.6143L36.4186 57.7238L70.5476 72.6143L36.4186 86.1355Z" fill="#2133D1" fill-opacity="0.9" stroke="#0058A9" stroke-width="0.25"/>
<g opacity="0.86">
<path d="M36.4186 84.7532L2.28969 71.232L36.4186 56.3415L70.5476 71.232L36.4186 84.7532Z" fill="#2B40FB" fill-opacity="0.9"/>
<path d="M36.4186 84.7532L2.28969 71.232L36.4186 56.3415L70.5476 71.232L36.4186 84.7532Z" fill="url(#paint0_linear_196_4997)" fill-opacity="0.66"/>
<path d="M36.4186 84.7532L2.28969 71.232L36.4186 56.3415L70.5476 71.232L36.4186 84.7532Z" stroke="#0788FF" stroke-width="0.25"/>
</g>
<path d="M36.5216 86.2002V84.8338L1.96436 71.3406V72.707L36.5216 86.2002Z" fill="#184AFF" fill-opacity="0.8"/>
<path d="M36.5216 86.2002V84.8338L1.96436 71.3406V72.707L36.5216 86.2002Z" fill="url(#paint1_linear_196_4997)" fill-opacity="0.2"/>
<path d="M36.5216 86.2002V84.8338L1.96436 71.3406V72.707L36.5216 86.2002Z" stroke="#367AFF" stroke-width="0.25"/>
<path d="M36.5216 86.2002V84.8338L70.7333 71.3406V72.707L36.5216 86.2002Z" fill="#184AFF" fill-opacity="0.8"/>
<path d="M36.5216 86.2002V84.8338L70.7333 71.3406V72.707L36.5216 86.2002Z" fill="url(#paint2_linear_196_4997)" fill-opacity="0.6"/>
<path d="M36.5216 86.2002V84.8338L70.7333 71.3406V72.707L36.5216 86.2002Z" stroke="#367AFF" stroke-width="0.25"/>
<path d="M36.4186 84.6188L2.61502 71.2264L36.4186 56.4779L70.2223 71.2264L36.4186 84.6188Z" stroke="url(#paint3_linear_196_4997)" stroke-width="0.5"/>
<path d="M36.4186 84.6188L2.61502 71.2264L36.4186 56.4779L70.2223 71.2264L36.4186 84.6188Z" stroke="url(#paint4_linear_196_4997)" stroke-width="0.5"/>
<path d="M70.3583 29.0408L36.551 42.3947V84.4393L70.3583 71.0854V29.0408Z" stroke="url(#paint5_linear_196_4997)" stroke-width="0.75"/>
<path d="M2.33936 29.0408L36.1466 42.3947V84.4393L2.33936 71.0854V29.0408Z" fill="#4AC4D6" fill-opacity="0.03" stroke="url(#paint6_linear_196_4997)" stroke-width="0.75"/>
<path d="M3.0011 70.5785L35.4849 83.4354V43.0743L3.0011 30.2173V70.5785Z" fill="url(#paint7_linear_196_4997)" fill-opacity="0.3"/>
<path d="M3.3761 30.769L35.1099 43.3292V82.8837L3.3761 70.3236V30.769Z" stroke="url(#paint8_linear_196_4997)" stroke-opacity="0.06" stroke-width="0.75"/>
<path d="M69.6965 70.5785L37.2127 83.4354V43.0743L69.6965 30.2173V70.5785Z" fill="url(#paint9_linear_196_4997)" fill-opacity="0.35"/>
<path d="M69.3215 30.769L37.5877 43.3292V82.8837L69.3215 70.3236V30.769Z" stroke="url(#paint10_linear_196_4997)" stroke-opacity="0.06" stroke-width="0.75"/>
<path d="M36.4186 41.9789L2.94035 28.7155L36.4186 14.1089L69.8969 28.7155L36.4186 41.9789Z" stroke="url(#paint11_linear_196_4997)" stroke-width="0.75"/>
<g style="mix-blend-mode:color-dodge" opacity="0.86" filter="url(#filter3_f_196_4997)">
<path d="M36.4186 82.1608L5.21767 69.7996L36.4186 56.1866L67.6196 69.7996L36.4186 82.1608Z" stroke="url(#paint12_linear_196_4997)" stroke-width="2.5"/>
</g>
<rect x="35.8304" y="42.3125" width="0.691145" height="42.851" fill="url(#paint13_linear_196_4997)"/>
<rect x="36.176" y="14.321" width="0.691145" height="42.851" fill="url(#paint14_linear_196_4997)" fill-opacity="0.18"/>
<g opacity="0.5" filter="url(#filter4_f_196_4997)">
<path d="M35.6576 16.0488L3.34662 30.2173V71.5132L35.6576 57.1719V16.0488Z" fill="url(#paint15_linear_196_4997)"/>
<path d="M35.6576 16.0488L3.34662 30.2173V71.5132L35.6576 57.1719V16.0488Z" stroke="url(#paint16_linear_196_4997)" stroke-width="0.5"/>
</g>
</g>
<path d="M36.4186 81.6429L2.28969 68.1216L36.4186 53.2312L70.5476 68.1216L36.4186 81.6429Z" fill="#2133D1" fill-opacity="0.9" stroke="#0058A9" stroke-width="0.25"/>
<g opacity="0.55">
<path d="M36.4186 80.2605L2.28969 66.7393L36.4186 51.8488L70.5476 66.7393L36.4186 80.2605Z" fill="#2B40FB" fill-opacity="0.9"/>
<path d="M36.4186 80.2605L2.28969 66.7393L36.4186 51.8488L70.5476 66.7393L36.4186 80.2605Z" fill="url(#paint17_linear_196_4997)" fill-opacity="0.66"/>
<path d="M36.4186 80.2605L2.28969 66.7393L36.4186 51.8488L70.5476 66.7393L36.4186 80.2605Z" stroke="#0788FF" stroke-width="0.25"/>
</g>
<g style="mix-blend-mode:plus-lighter" opacity="0.86">
<path d="M1.96436 66.7449L36.4186 51.7125L70.8729 66.7449L36.4186 80.395L1.96436 66.7449Z" fill="url(#paint18_linear_196_4997)"/>
</g>
<path d="M36.5216 81.7075V80.3411L1.96436 66.8479V68.2143L36.5216 81.7075Z" fill="#184AFF" fill-opacity="0.8"/>
<path d="M36.5216 81.7075V80.3411L1.96436 66.8479V68.2143L36.5216 81.7075Z" fill="url(#paint19_linear_196_4997)" fill-opacity="0.2"/>
<path d="M36.5216 81.7075V80.3411L1.96436 66.8479V68.2143L36.5216 81.7075Z" stroke="#367AFF" stroke-width="0.25"/>
<path d="M36.5216 81.7075V80.3411L70.7333 66.8479V68.2143L36.5216 81.7075Z" fill="#184AFF" fill-opacity="0.8"/>
<path d="M36.5216 81.7075V80.3411L70.7333 66.8479V68.2143L36.5216 81.7075Z" fill="url(#paint20_linear_196_4997)" fill-opacity="0.6"/>
<path d="M36.5216 81.7075V80.3411L70.7333 66.8479V68.2143L36.5216 81.7075Z" stroke="#367AFF" stroke-width="0.25"/>
<path d="M36.4186 80.1261L2.61502 66.7337L36.4186 51.9852L70.2223 66.7337L36.4186 80.1261Z" stroke="url(#paint21_linear_196_4997)" stroke-width="0.5"/>
<path d="M36.4186 80.1261L2.61502 66.7337L36.4186 51.9852L70.2223 66.7337L36.4186 80.1261Z" stroke="url(#paint22_linear_196_4997)" stroke-width="0.5"/>
<path d="M69.6965 66.0858L37.2127 78.9428V38.5816L69.6965 25.7246V66.0858Z" fill="url(#paint23_linear_196_4997)" fill-opacity="0.35"/>
<path d="M69.3215 26.2763L37.5877 38.8365V78.391L69.3215 65.8309V26.2763Z" stroke="url(#paint24_linear_196_4997)" stroke-opacity="0.06" stroke-width="0.75"/>
<g style="mix-blend-mode:color-dodge" opacity="0.86" filter="url(#filter5_f_196_4997)">
<path d="M36.4186 77.6681L5.21767 65.3069L36.4186 51.6939L67.6196 65.3069L36.4186 77.6681Z" stroke="url(#paint25_linear_196_4997)" stroke-width="2.5"/>
</g>
<rect x="36.176" y="9.82837" width="0.691145" height="42.851" fill="url(#paint26_linear_196_4997)" fill-opacity="0.18"/>
<g opacity="0.5" filter="url(#filter6_f_196_4997)">
<path d="M35.6576 11.5564L3.34662 25.7249V67.0208L35.6576 52.6795V11.5564Z" fill="url(#paint27_linear_196_4997)"/>
<path d="M35.6576 11.5564L3.34662 25.7249V67.0208L35.6576 52.6795V11.5564Z" stroke="url(#paint28_linear_196_4997)" stroke-width="0.5"/>
</g>
<g style="mix-blend-mode:multiply" opacity="0.8" filter="url(#filter7_if_196_4997)">
<path d="M33.338 54.6369L47.8764 63.1091V56.2717L52.7094 56.539V67.9004L31.9374 66.7694V64.2606L45.0752 64.9804L33.2591 58.1841L25.4079 61.8444L15.2094 55.9941L18.622 54.4004L25.4079 58.328L33.338 54.6369Z" fill="url(#paint29_linear_196_4997)" fill-opacity="0.68"/>
</g>
<path d="M15.2094 37.021L17.3478 34.9414L20.7419 31.9004L18.6035 33.98L15.2094 37.021Z" fill="#244B7B"/>
<path d="M18.6035 33.98L20.7419 31.9004L27.4713 39.3949L25.3524 41.4745L18.6035 33.98Z" fill="url(#paint30_linear_196_4997)"/>
<path d="M31.8464 52.795L33.9849 50.7153L47.0512 52.0887L44.9127 54.1683L31.8464 52.795Z" fill="url(#paint31_linear_196_4997)"/>
<path d="M33.2393 34.4312L35.3778 32.3516L49.8371 48.5177L47.6986 50.5974L33.2393 34.4312Z" fill="url(#paint32_linear_196_4997)"/>
<path d="M25.3524 41.4745L27.4713 39.3948L35.3778 32.3516L33.2393 34.4312L25.3524 41.4745Z" fill="#244B7B"/>
<path d="M52.5053 38.0608L54.6438 35.9812V57.6603L52.5053 59.74V38.0608Z" fill="url(#paint33_linear_196_4997)"/>
<path d="M47.6986 37.5506L49.8371 35.4709L54.6438 35.981L52.5053 38.0607L47.6986 37.5506Z" fill="url(#paint34_linear_196_4997)"/>
<g filter="url(#filter8_di_196_4997)">
<path d="M33.2393 34.4312L47.6986 50.5974V37.5507L52.5053 38.0608V59.7399L31.8464 57.5818V52.7947L44.9127 54.1681L33.1609 41.1998L25.3524 48.1842L15.2094 37.0209L18.6035 33.98L25.3524 41.4745L33.2393 34.4312Z" fill="url(#paint35_linear_196_4997)" fill-opacity="0.6" shape-rendering="crispEdges"/>
<path d="M47.9486 50.5974V37.8286L52.2553 38.2856V59.4624L32.0964 57.3566V53.0724L44.8866 54.4167L45.5374 54.4851L45.098 54.0002L33.3461 41.0319L33.1793 40.8479L32.9942 41.0135L25.3707 47.8325L15.5637 37.0392L18.5846 34.3326L25.1667 41.6418L25.3333 41.8268L25.519 41.661L33.2195 34.7841L47.5123 50.7641L47.9486 51.2519V50.5974Z" stroke="url(#paint36_linear_196_4997)" stroke-width="0.5" shape-rendering="crispEdges"/>
</g>
<g style="mix-blend-mode:plus-lighter" opacity="0.3">
<path d="M35.2393 32.3516L49.6986 48.5178V35.4711L54.5053 35.9812V57.6603L33.8464 55.5022V50.7151L46.9127 52.0885L35.1609 39.1202L27.3524 46.1046L17.2094 34.9414L20.6035 31.9004L27.3524 39.3949L35.2393 32.3516Z" fill="#2885FD"/>
</g>
<g style="mix-blend-mode:plus-lighter" filter="url(#filter9_di_196_4997)">
<path d="M35.2393 32.3516L49.6986 48.5178V35.4711L54.5053 35.9812V57.6603L33.8464 55.5022V50.7151L46.9127 52.0885L35.1609 39.1202L27.3524 46.1046L17.2094 34.9414L20.6035 31.9004L27.3524 39.3949L35.2393 32.3516Z" fill="url(#paint37_linear_196_4997)" fill-opacity="0.01" shape-rendering="crispEdges"/>
<path d="M35.2393 32.3516L49.6986 48.5178V35.4711L54.5053 35.9812V57.6603L33.8464 55.5022V50.7151L46.9127 52.0885L35.1609 39.1202L27.3524 46.1046L17.2094 34.9414L20.6035 31.9004L27.3524 39.3949L35.2393 32.3516Z" fill="url(#paint38_linear_196_4997)" fill-opacity="0.3" shape-rendering="crispEdges"/>
</g>
<path d="M70.3583 24.5484L36.551 37.9023V79.9468L70.3583 66.593V24.5484Z" stroke="url(#paint39_linear_196_4997)" stroke-width="0.75"/>
<path d="M2.33936 24.5484L36.1466 37.9023V79.9468L2.33936 66.593V24.5484Z" fill="#4AC4D6" fill-opacity="0.03" stroke="url(#paint40_linear_196_4997)" stroke-width="0.75"/>
<path d="M3.0011 66.086L35.4849 78.943V38.5818L3.0011 25.7249V66.086Z" fill="url(#paint41_linear_196_4997)" fill-opacity="0.3"/>
<path d="M3.3761 26.2766L35.1099 38.8367V78.3913L3.3761 65.8311V26.2766Z" stroke="url(#paint42_linear_196_4997)" stroke-opacity="0.06" stroke-width="0.75"/>
<path d="M36.4186 37.4863L2.94035 24.2228L36.4186 9.61624L69.8969 24.2228L36.4186 37.4863Z" stroke="url(#paint43_linear_196_4997)" stroke-width="0.75"/>
<rect x="35.8304" y="37.8198" width="0.691145" height="42.851" fill="url(#paint44_linear_196_4997)"/>
<path d="M41.878 68.5759L64.3402 27.1072L59.675 28.835L36.6944 71.1677L41.878 68.5759Z" fill="url(#paint45_linear_196_4997)"/>
<g style="mix-blend-mode:plus-lighter" opacity="0.5">
<path d="M30.6469 36.9559L22.1804 33.3274L5.07452 67.7119L13.3683 70.9948L30.6469 36.9559Z" fill="url(#paint46_linear_196_4997)"/>
</g>
<g style="mix-blend-mode:plus-lighter" opacity="0.55">
<path d="M3.0011 49.9147L13.1955 30.0443L3.0011 25.8975V49.9147Z" fill="url(#paint47_linear_196_4997)"/>
</g>
<circle cx="36.8011" cy="18.4922" r="2.59179" fill="#0271FC"/>
<circle cx="36.8011" cy="18.4922" r="2.59179" fill="url(#paint48_radial_196_4997)"/>
<circle cx="36.8011" cy="18.4922" r="2.59179" fill="url(#paint49_radial_196_4997)"/>
<g style="mix-blend-mode:color-dodge" filter="url(#filter10_df_196_4997)">
<circle cx="37.8378" cy="17.1099" r="0.518359" fill="url(#paint50_linear_196_4997)" shape-rendering="crispEdges"/>
</g>
<g filter="url(#filter11_f_196_4997)">
<path d="M34.2094 18.3193C34.2094 19.7507 35.3697 20.9111 36.8011 20.9111C37.3846 20.9111 37.923 20.7183 38.3562 20.393" stroke="url(#paint51_linear_196_4997)" stroke-width="0.25"/>
</g>
<g style="mix-blend-mode:overlay">
<path d="M34.2094 18.3193C34.2094 19.7507 35.3697 20.9111 36.8011 20.9111C37.3846 20.9111 37.923 20.7183 38.3562 20.393" stroke="url(#paint52_linear_196_4997)" stroke-width="0.25"/>
</g>
<g opacity="0.3">
<circle cx="65.7644" cy="41.9555" r="1.55508" fill="#0271FC"/>
<circle cx="65.7644" cy="41.9555" r="1.55508" fill="url(#paint53_radial_196_4997)"/>
<circle cx="65.7644" cy="41.9555" r="1.55508" fill="url(#paint54_radial_196_4997)"/>
<g style="mix-blend-mode:color-dodge" filter="url(#filter12_df_196_4997)">
<circle cx="66.3865" cy="41.1262" r="0.311015" fill="url(#paint55_linear_196_4997)" shape-rendering="crispEdges"/>
</g>
<g filter="url(#filter13_f_196_4997)">
<path d="M64.2094 41.8518C64.2094 42.7107 64.9056 43.4069 65.7644 43.4069C66.1145 43.4069 66.4376 43.2912 66.6975 43.096" stroke="url(#paint56_linear_196_4997)" stroke-width="0.25"/>
</g>
<g style="mix-blend-mode:overlay">
<path d="M64.2094 41.8518C64.2094 42.7107 64.9056 43.4069 65.7644 43.4069C66.1145 43.4069 66.4376 43.2912 66.6975 43.096" stroke="url(#paint57_linear_196_4997)" stroke-width="0.25"/>
</g>
</g>
<g opacity="0.05">
<circle cx="27.3639" cy="6.19985" r="1.55508" fill="#0271FC"/>
<circle cx="27.3639" cy="6.19985" r="1.55508" fill="url(#paint58_radial_196_4997)"/>
<circle cx="27.3639" cy="6.19985" r="1.55508" fill="url(#paint59_radial_196_4997)"/>
<g style="mix-blend-mode:color-dodge" filter="url(#filter14_df_196_4997)">
<circle cx="27.9859" cy="5.37059" r="0.311015" fill="url(#paint60_linear_196_4997)" shape-rendering="crispEdges"/>
</g>
<g filter="url(#filter15_f_196_4997)">
<path d="M25.8088 6.09619C25.8088 6.95504 26.5051 7.65127 27.3639 7.65127C27.714 7.65127 28.0371 7.53559 28.297 7.34037" stroke="url(#paint61_linear_196_4997)" stroke-width="0.25"/>
</g>
<g style="mix-blend-mode:overlay">
<path d="M25.8088 6.09619C25.8088 6.95504 26.5051 7.65127 27.3639 7.65127C27.714 7.65127 28.0371 7.53559 28.297 7.34037" stroke="url(#paint62_linear_196_4997)" stroke-width="0.25"/>
</g>
</g>
</g>
<defs>
<filter id="filter0_dd_196_4997" x="-7.03564" y="61.7302" width="86.7689" height="33.8596" filterUnits="userSpaceOnUse" color-interpolation-filters="sRGB">
<feFlood flood-opacity="0" result="BackgroundImageFix"/>
<feColorMatrix in="SourceAlpha" type="matrix" values="0 0 0 0 0 0 0 0 0 0 0 0 0 0 0 0 0 0 127 0" result="hardAlpha"/>
<feOffset dy="2.5"/>
<feGaussianBlur stdDeviation="4.5"/>
<feComposite in2="hardAlpha" operator="out"/>
<feColorMatrix type="matrix" values="0 0 0 0 0.407843 0 0 0 0 0.715765 0 0 0 0 1 0 0 0 0.64 0"/>
<feBlend mode="normal" in2="BackgroundImageFix" result="effect1_dropShadow_196_4997"/>
<feColorMatrix in="SourceAlpha" type="matrix" values="0 0 0 0 0 0 0 0 0 0 0 0 0 0 0 0 0 0 127 0" result="hardAlpha"/>
<feOffset dy="5"/>
<feGaussianBlur stdDeviation="3.75"/>
<feComposite in2="hardAlpha" operator="out"/>
<feColorMatrix type="matrix" values="0 0 0 0 0 0 0 0 0 0 0 0 0 0 0 0 0 0 1 0"/>
<feBlend mode="normal" in2="effect1_dropShadow_196_4997" result="effect2_dropShadow_196_4997"/>
<feBlend mode="normal" in="SourceGraphic" in2="effect2_dropShadow_196_4997" result="shape"/>
</filter>
<filter id="filter1_f_196_4997" x="-1.03564" y="65.2302" width="74.7689" height="20.8596" filterUnits="userSpaceOnUse" color-interpolation-filters="sRGB">
<feFlood flood-opacity="0" result="BackgroundImageFix"/>
<feBlend mode="normal" in="SourceGraphic" in2="BackgroundImageFix" result="shape"/>
<feGaussianBlur stdDeviation="1.5" result="effect1_foregroundBlur_196_4997"/>
</filter>
<filter id="filter2_f_196_4997" x="-3.16064" y="8.69971" width="79.0336" height="82.6841" filterUnits="userSpaceOnUse" color-interpolation-filters="sRGB">
<feFlood flood-opacity="0" result="BackgroundImageFix"/>
<feBlend mode="normal" in="SourceGraphic" in2="BackgroundImageFix" result="shape"/>
<feGaussianBlur stdDeviation="2.5" result="effect1_foregroundBlur_196_4997"/>
</filter>
<filter id="filter3_f_196_4997" x="-7.03564" y="45.8228" width="86.9086" height="46.6826" filterUnits="userSpaceOnUse" color-interpolation-filters="sRGB">
<feFlood flood-opacity="0" result="BackgroundImageFix"/>
<feBlend mode="normal" in="SourceGraphic" in2="BackgroundImageFix" result="shape"/>
<feGaussianBlur stdDeviation="4.5" result="effect1_foregroundBlur_196_4997"/>
</filter>
<filter id="filter4_f_196_4997" x="1.59662" y="14.1663" width="35.811" height="59.2314" filterUnits="userSpaceOnUse" color-interpolation-filters="sRGB">
<feFlood flood-opacity="0" result="BackgroundImageFix"/>
<feBlend mode="normal" in="SourceGraphic" in2="BackgroundImageFix" result="shape"/>
<feGaussianBlur stdDeviation="0.75" result="effect1_foregroundBlur_196_4997"/>
</filter>
<filter id="filter5_f_196_4997" x="-7.03564" y="41.3301" width="86.9086" height="46.6826" filterUnits="userSpaceOnUse" color-interpolation-filters="sRGB">
<feFlood flood-opacity="0" result="BackgroundImageFix"/>
<feBlend mode="normal" in="SourceGraphic" in2="BackgroundImageFix" result="shape"/>
<feGaussianBlur stdDeviation="4.5" result="effect1_foregroundBlur_196_4997"/>
</filter>
<filter id="filter6_f_196_4997" x="1.59662" y="9.67383" width="35.811" height="59.2314" filterUnits="userSpaceOnUse" color-interpolation-filters="sRGB">
<feFlood flood-opacity="0" result="BackgroundImageFix"/>
<feBlend mode="normal" in="SourceGraphic" in2="BackgroundImageFix" result="shape"/>
<feGaussianBlur stdDeviation="0.75" result="effect1_foregroundBlur_196_4997"/>
</filter>
<filter id="filter7_if_196_4997" x="12.7094" y="51.9004" width="42.5" height="18.5" filterUnits="userSpaceOnUse" color-interpolation-filters="sRGB">
<feFlood flood-opacity="0" result="BackgroundImageFix"/>
<feBlend mode="normal" in="SourceGraphic" in2="BackgroundImageFix" result="shape"/>
<feColorMatrix in="SourceAlpha" type="matrix" values="0 0 0 0 0 0 0 0 0 0 0 0 0 0 0 0 0 0 127 0" result="hardAlpha"/>
<feOffset/>
<feGaussianBlur stdDeviation="4.9"/>
<feComposite in2="hardAlpha" operator="arithmetic" k2="-1" k3="1"/>
<feColorMatrix type="matrix" values="0 0 0 0 0.2 0 0 0 0 0 0 0 0 0 1 0 0 0 0.15 0"/>
<feBlend mode="normal" in2="shape" result="effect1_innerShadow_196_4997"/>
<feGaussianBlur stdDeviation="1.25" result="effect2_foregroundBlur_196_4997"/>
</filter>
<filter id="filter8_di_196_4997" x="5.70935" y="31.98" width="56.296" height="44.76" filterUnits="userSpaceOnUse" color-interpolation-filters="sRGB">
<feFlood flood-opacity="0" result="BackgroundImageFix"/>
<feColorMatrix in="SourceAlpha" type="matrix" values="0 0 0 0 0 0 0 0 0 0 0 0 0 0 0 0 0 0 127 0" result="hardAlpha"/>
<feOffset dy="7.5"/>
<feGaussianBlur stdDeviation="4.75"/>
<feComposite in2="hardAlpha" operator="out"/>
<feColorMatrix type="matrix" values="0 0 0 0 0.18 0 0 0 0 0.8032 0 0 0 0 1 0 0 0 0.5 0"/>
<feBlend mode="normal" in2="BackgroundImageFix" result="effect1_dropShadow_196_4997"/>
<feBlend mode="normal" in="SourceGraphic" in2="effect1_dropShadow_196_4997" result="shape"/>
<feColorMatrix in="SourceAlpha" type="matrix" values="0 0 0 0 0 0 0 0 0 0 0 0 0 0 0 0 0 0 127 0" result="hardAlpha"/>
<feOffset/>
<feGaussianBlur stdDeviation="4.9"/>
<feComposite in2="hardAlpha" operator="arithmetic" k2="-1" k3="1"/>
<feColorMatrix type="matrix" values="0 0 0 0 0.2 0 0 0 0 0 0 0 0 0 1 0 0 0 0.5 0"/>
<feBlend mode="normal" in2="shape" result="effect2_innerShadow_196_4997"/>
</filter>
<filter id="filter9_di_196_4997" x="15.2094" y="31.9004" width="41.296" height="35.76" filterUnits="userSpaceOnUse" color-interpolation-filters="sRGB">
<feFlood flood-opacity="0" result="BackgroundImageFix"/>
<feColorMatrix in="SourceAlpha" type="matrix" values="0 0 0 0 0 0 0 0 0 0 0 0 0 0 0 0 0 0 127 0" result="hardAlpha"/>
<feOffset dy="8"/>
<feGaussianBlur stdDeviation="1"/>
<feComposite in2="hardAlpha" operator="out"/>
<feColorMatrix type="matrix" values="0 0 0 0 0 0 0 0 0 0 0 0 0 0 0 0 0 0 0.25 0"/>
<feBlend mode="normal" in2="BackgroundImageFix" result="effect1_dropShadow_196_4997"/>
<feBlend mode="normal" in="SourceGraphic" in2="effect1_dropShadow_196_4997" result="shape"/>
<feColorMatrix in="SourceAlpha" type="matrix" values="0 0 0 0 0 0 0 0 0 0 0 0 0 0 0 0 0 0 127 0" result="hardAlpha"/>
<feOffset/>
<feGaussianBlur stdDeviation="4.9"/>
<feComposite in2="hardAlpha" operator="arithmetic" k2="-1" k3="1"/>
<feColorMatrix type="matrix" values="0 0 0 0 0.2 0 0 0 0 0 0 0 0 0 1 0 0 0 0.15 0"/>
<feBlend mode="normal" in2="shape" result="effect2_innerShadow_196_4997"/>
</filter>
<filter id="filter10_df_196_4997" x="33.8195" y="13.0916" width="8.03674" height="8.03662" filterUnits="userSpaceOnUse" color-interpolation-filters="sRGB">
<feFlood flood-opacity="0" result="BackgroundImageFix"/>
<feColorMatrix in="SourceAlpha" type="matrix" values="0 0 0 0 0 0 0 0 0 0 0 0 0 0 0 0 0 0 127 0" result="hardAlpha"/>
<feMorphology radius="1" operator="dilate" in="SourceAlpha" result="effect1_dropShadow_196_4997"/>
<feOffset/>
<feGaussianBlur stdDeviation="1.25"/>
<feComposite in2="hardAlpha" operator="out"/>
<feColorMatrix type="matrix" values="0 0 0 0 0.27 0 0 0 0 0.9562 0 0 0 0 1 0 0 0 0.35 0"/>
<feBlend mode="normal" in2="BackgroundImageFix" result="effect1_dropShadow_196_4997"/>
<feBlend mode="normal" in="SourceGraphic" in2="effect1_dropShadow_196_4997" result="shape"/>
<feGaussianBlur stdDeviation="0.375" result="effect2_foregroundBlur_196_4997"/>
</filter>
<filter id="filter11_f_196_4997" x="32.5844" y="16.8193" width="7.34692" height="5.7168" filterUnits="userSpaceOnUse" color-interpolation-filters="sRGB">
<feFlood flood-opacity="0" result="BackgroundImageFix"/>
<feBlend mode="normal" in="SourceGraphic" in2="BackgroundImageFix" result="shape"/>
<feGaussianBlur stdDeviation="0.75" result="effect1_foregroundBlur_196_4997"/>
</filter>
<filter id="filter12_df_196_4997" x="62.5754" y="37.3152" width="7.62201" height="7.62207" filterUnits="userSpaceOnUse" color-interpolation-filters="sRGB">
<feFlood flood-opacity="0" result="BackgroundImageFix"/>
<feColorMatrix in="SourceAlpha" type="matrix" values="0 0 0 0 0 0 0 0 0 0 0 0 0 0 0 0 0 0 127 0" result="hardAlpha"/>
<feMorphology radius="1" operator="dilate" in="SourceAlpha" result="effect1_dropShadow_196_4997"/>
<feOffset/>
<feGaussianBlur stdDeviation="1.25"/>
<feComposite in2="hardAlpha" operator="out"/>
<feColorMatrix type="matrix" values="0 0 0 0 0.27 0 0 0 0 0.9562 0 0 0 0 1 0 0 0 0.35 0"/>
<feBlend mode="normal" in2="BackgroundImageFix" result="effect1_dropShadow_196_4997"/>
<feBlend mode="normal" in="SourceGraphic" in2="effect1_dropShadow_196_4997" result="shape"/>
<feGaussianBlur stdDeviation="0.375" result="effect2_foregroundBlur_196_4997"/>
</filter>
<filter id="filter13_f_196_4997" x="62.5844" y="40.3518" width="5.68817" height="4.68018" filterUnits="userSpaceOnUse" color-interpolation-filters="sRGB">
<feFlood flood-opacity="0" result="BackgroundImageFix"/>
<feBlend mode="normal" in="SourceGraphic" in2="BackgroundImageFix" result="shape"/>
<feGaussianBlur stdDeviation="0.75" result="effect1_foregroundBlur_196_4997"/>
</filter>
<filter id="filter14_df_196_4997" x="24.1749" y="1.55957" width="7.62201" height="7.62207" filterUnits="userSpaceOnUse" color-interpolation-filters="sRGB">
<feFlood flood-opacity="0" result="BackgroundImageFix"/>
<feColorMatrix in="SourceAlpha" type="matrix" values="0 0 0 0 0 0 0 0 0 0 0 0 0 0 0 0 0 0 127 0" result="hardAlpha"/>
<feMorphology radius="1" operator="dilate" in="SourceAlpha" result="effect1_dropShadow_196_4997"/>
<feOffset/>
<feGaussianBlur stdDeviation="1.25"/>
<feComposite in2="hardAlpha" operator="out"/>
<feColorMatrix type="matrix" values="0 0 0 0 0.27 0 0 0 0 0.9562 0 0 0 0 1 0 0 0 0.35 0"/>
<feBlend mode="normal" in2="BackgroundImageFix" result="effect1_dropShadow_196_4997"/>
<feBlend mode="normal" in="SourceGraphic" in2="effect1_dropShadow_196_4997" result="shape"/>
<feGaussianBlur stdDeviation="0.375" result="effect2_foregroundBlur_196_4997"/>
</filter>
<filter id="filter15_f_196_4997" x="24.1838" y="4.59619" width="5.68817" height="4.68018" filterUnits="userSpaceOnUse" color-interpolation-filters="sRGB">
<feFlood flood-opacity="0" result="BackgroundImageFix"/>
<feBlend mode="normal" in="SourceGraphic" in2="BackgroundImageFix" result="shape"/>
<feGaussianBlur stdDeviation="0.75" result="effect1_foregroundBlur_196_4997"/>
</filter>
<linearGradient id="paint0_linear_196_4997" x1="-12.2041" y1="74.4507" x2="65.2041" y2="65.293" gradientUnits="userSpaceOnUse">
<stop offset="0.372166" stop-color="#2871FF"/>
<stop offset="0.599083" stop-color="#09DCFE" stop-opacity="0.6"/>
<stop offset="0.813364" stop-color="#B061FF" stop-opacity="0.79"/>
</linearGradient>
<linearGradient id="paint1_linear_196_4997" x1="1.96436" y1="79.8071" x2="19.243" y2="86.2002" gradientUnits="userSpaceOnUse">
<stop stop-color="#2965FF"/>
<stop offset="1" stop-color="#76BDFF"/>
</linearGradient>
<linearGradient id="paint2_linear_196_4997" x1="39.1134" y1="86.2002" x2="66.932" y2="73.5868" gradientUnits="userSpaceOnUse">
<stop stop-color="#7859FF" stop-opacity="0.87"/>
<stop offset="1" stop-color="#8062FF"/>
</linearGradient>
<linearGradient id="paint3_linear_196_4997" x1="36.5216" y1="87.4096" x2="36.5216" y2="59.9366" gradientUnits="userSpaceOnUse">
<stop stop-color="#3EC5FF"/>
<stop offset="1" stop-color="#486EFF"/>
</linearGradient>
<linearGradient id="paint4_linear_196_4997" x1="36.5216" y1="87.4096" x2="36.5216" y2="73.7595" gradientUnits="userSpaceOnUse">
<stop offset="0.316456" stop-color="#C6EEFF"/>
<stop offset="0.898734" stop-color="#486EFF" stop-opacity="0"/>
</linearGradient>
<linearGradient id="paint5_linear_196_4997" x1="68.4871" y1="45.2498" x2="31.1652" y2="30.5629" gradientUnits="userSpaceOnUse">
<stop offset="0.147541" stop-color="#8D50EF"/>
<stop offset="1" stop-color="#82E1FF" stop-opacity="0"/>
<stop offset="1" stop-color="#EBFAFF"/>
</linearGradient>
<linearGradient id="paint6_linear_196_4997" x1="19.243" y1="32.2908" x2="19.243" y2="84.9906" gradientUnits="userSpaceOnUse">
<stop stop-color="#5ED8FF"/>
<stop offset="1" stop-color="#82E1FF" stop-opacity="0"/>
</linearGradient>
<linearGradient id="paint7_linear_196_4997" x1="4.55617" y1="34.7097" x2="16.1329" y2="60.8004" gradientUnits="userSpaceOnUse">
<stop offset="0.317076" stop-color="#41DFF5"/>
<stop offset="1" stop-color="#00DFFF" stop-opacity="0"/>
</linearGradient>
<linearGradient id="paint8_linear_196_4997" x1="19.243" y1="33.7977" x2="19.243" y2="83.4354" gradientUnits="userSpaceOnUse">
<stop stop-color="#5ED8FF"/>
<stop offset="1" stop-color="#82E1FF" stop-opacity="0"/>
</linearGradient>
<linearGradient id="paint9_linear_196_4997" x1="73.6706" y1="91.902" x2="33.757" y2="59.4182" gradientUnits="userSpaceOnUse">
<stop offset="0.253436" stop-color="#BCF7FF"/>
<stop offset="0.776536" stop-color="#00DFFF" stop-opacity="0"/>
</linearGradient>
<linearGradient id="paint10_linear_196_4997" x1="53.4546" y1="33.7977" x2="53.4546" y2="83.4354" gradientUnits="userSpaceOnUse">
<stop stop-color="#5ED8FF"/>
<stop offset="1" stop-color="#82E1FF" stop-opacity="0"/>
</linearGradient>
<linearGradient id="paint11_linear_196_4997" x1="19.1915" y1="11.505" x2="53.6458" y2="45.9593" gradientUnits="userSpaceOnUse">
<stop stop-color="#DDDFFF"/>
<stop offset="0.826452" stop-color="#0539C0"/>
</linearGradient>
<linearGradient id="paint12_linear_196_4997" x1="36.5216" y1="86.0273" x2="36.5216" y2="53.3707" gradientUnits="userSpaceOnUse">
<stop offset="0.0109998" stop-color="white"/>
<stop offset="0.376" stop-color="#2B73FF"/>
<stop offset="0.898734" stop-color="#486EFF" stop-opacity="0"/>
</linearGradient>
<linearGradient id="paint13_linear_196_4997" x1="36.176" y1="42.3125" x2="36.176" y2="85.1635" gradientUnits="userSpaceOnUse">
<stop offset="0.595" stop-color="white"/>
<stop offset="1" stop-color="white" stop-opacity="0"/>
</linearGradient>
<linearGradient id="paint14_linear_196_4997" x1="36.5216" y1="14.321" x2="36.5216" y2="57.172" gradientUnits="userSpaceOnUse">
<stop offset="0.595" stop-color="#456AD2"/>
<stop offset="1" stop-color="#3A6DFF" stop-opacity="0"/>
</linearGradient>
<linearGradient id="paint15_linear_196_4997" x1="19.5021" y1="16.0488" x2="19.5021" y2="71.5132" gradientUnits="userSpaceOnUse">
<stop stop-color="#81B9FC" stop-opacity="0.17"/>
<stop offset="1" stop-color="#0075FF" stop-opacity="0"/>
</linearGradient>
<linearGradient id="paint16_linear_196_4997" x1="19.5021" y1="19.7804" x2="19.5021" y2="71.5132" gradientUnits="userSpaceOnUse">
<stop stop-color="#5ED8FF" stop-opacity="0.3"/>
<stop offset="0.646" stop-color="#82E1FF" stop-opacity="0"/>
</linearGradient>
<linearGradient id="paint17_linear_196_4997" x1="-12.2041" y1="69.958" x2="65.2041" y2="60.8003" gradientUnits="userSpaceOnUse">
<stop offset="0.372166" stop-color="#2871FF"/>
<stop offset="0.599083" stop-color="#09DCFE" stop-opacity="0.6"/>
<stop offset="0.813364" stop-color="#B061FF" stop-opacity="0.79"/>
</linearGradient>
<linearGradient id="paint18_linear_196_4997" x1="39.8045" y1="85.1632" x2="36.5216" y2="66.8478" gradientUnits="userSpaceOnUse">
<stop stop-color="#00F0FF"/>
<stop offset="1" stop-color="#00F0FF" stop-opacity="0"/>
</linearGradient>
<linearGradient id="paint19_linear_196_4997" x1="1.96436" y1="75.3144" x2="19.243" y2="81.7075" gradientUnits="userSpaceOnUse">
<stop stop-color="#2965FF"/>
<stop offset="1" stop-color="#76BDFF"/>
</linearGradient>
<linearGradient id="paint20_linear_196_4997" x1="39.1134" y1="81.7075" x2="66.932" y2="69.0941" gradientUnits="userSpaceOnUse">
<stop stop-color="#7859FF" stop-opacity="0.87"/>
<stop offset="1" stop-color="#8062FF"/>
</linearGradient>
<linearGradient id="paint21_linear_196_4997" x1="36.5216" y1="82.917" x2="36.5216" y2="55.4439" gradientUnits="userSpaceOnUse">
<stop stop-color="#3EC5FF"/>
<stop offset="1" stop-color="#486EFF"/>
</linearGradient>
<linearGradient id="paint22_linear_196_4997" x1="36.5216" y1="82.917" x2="36.5216" y2="69.2668" gradientUnits="userSpaceOnUse">
<stop offset="0.316456" stop-color="#C6EEFF"/>
<stop offset="0.898734" stop-color="#486EFF" stop-opacity="0"/>
</linearGradient>
<linearGradient id="paint23_linear_196_4997" x1="73.6706" y1="87.4093" x2="33.757" y2="54.9255" gradientUnits="userSpaceOnUse">
<stop offset="0.253436" stop-color="#BCF7FF"/>
<stop offset="0.776536" stop-color="#00DFFF" stop-opacity="0"/>
</linearGradient>
<linearGradient id="paint24_linear_196_4997" x1="53.4546" y1="29.305" x2="53.4546" y2="78.9428" gradientUnits="userSpaceOnUse">
<stop stop-color="#5ED8FF"/>
<stop offset="1" stop-color="#82E1FF" stop-opacity="0"/>
</linearGradient>
<linearGradient id="paint25_linear_196_4997" x1="36.5216" y1="81.5346" x2="36.5216" y2="48.878" gradientUnits="userSpaceOnUse">
<stop offset="0.0109998" stop-color="white"/>
<stop offset="0.376" stop-color="#2B73FF"/>
<stop offset="0.898734" stop-color="#486EFF" stop-opacity="0"/>
</linearGradient>
<linearGradient id="paint26_linear_196_4997" x1="36.5216" y1="9.82837" x2="36.5216" y2="52.6794" gradientUnits="userSpaceOnUse">
<stop offset="0.595" stop-color="#456AD2"/>
<stop offset="1" stop-color="#3A6DFF" stop-opacity="0"/>
</linearGradient>
<linearGradient id="paint27_linear_196_4997" x1="19.5021" y1="11.5564" x2="19.5021" y2="67.0208" gradientUnits="userSpaceOnUse">
<stop stop-color="#81B9FC" stop-opacity="0.17"/>
<stop offset="1" stop-color="#0075FF" stop-opacity="0"/>
</linearGradient>
<linearGradient id="paint28_linear_196_4997" x1="19.5021" y1="15.2879" x2="19.5021" y2="67.0208" gradientUnits="userSpaceOnUse">
<stop stop-color="#5ED8FF" stop-opacity="0.3"/>
<stop offset="0.646" stop-color="#82E1FF" stop-opacity="0"/>
</linearGradient>
<linearGradient id="paint29_linear_196_4997" x1="33.9594" y1="84.6731" x2="60.7498" y2="56.7149" gradientUnits="userSpaceOnUse">
<stop offset="0.137574" stop-opacity="0"/>
<stop offset="1" stop-color="#666666"/>
</linearGradient>
<linearGradient id="paint30_linear_196_4997" x1="23.0374" y1="31.9004" x2="23.0374" y2="41.4745" gradientUnits="userSpaceOnUse">
<stop stop-color="#144FFF"/>
<stop offset="1" stop-color="#46E1FF"/>
</linearGradient>
<linearGradient id="paint31_linear_196_4997" x1="34.4877" y1="49.0769" x2="42.8658" y2="57.5248" gradientUnits="userSpaceOnUse">
<stop stop-color="#3290FF"/>
<stop offset="1" stop-color="#0024FF"/>
</linearGradient>
<linearGradient id="paint32_linear_196_4997" x1="23.1606" y1="32.569" x2="36.0216" y2="53.9203" gradientUnits="userSpaceOnUse">
<stop stop-color="#45E9FF"/>
<stop offset="1" stop-color="#B0ECF6"/>
</linearGradient>
<linearGradient id="paint33_linear_196_4997" x1="51.2068" y1="36.2644" x2="57.2672" y2="37.2599" gradientUnits="userSpaceOnUse">
<stop stop-color="#45E9FF"/>
<stop offset="1" stop-color="#B0ECF6"/>
</linearGradient>
<linearGradient id="paint34_linear_196_4997" x1="47.6632" y1="35.6215" x2="53.1224" y2="38.8084" gradientUnits="userSpaceOnUse">
<stop offset="0.0853541" stop-color="#BDF5FF"/>
<stop offset="1" stop-color="white"/>
</linearGradient>
<linearGradient id="paint35_linear_196_4997" x1="33.8573" y1="33.98" x2="33.934" y2="61.3956" gradientUnits="userSpaceOnUse">
<stop offset="0.0759423" stop-color="#00FFF0"/>
<stop offset="0.387205" stop-color="#00F0FF"/>
<stop offset="0.644073" stop-color="#68ACFC"/>
<stop offset="0.845327" stop-color="#D852FF"/>
</linearGradient>
<linearGradient id="paint36_linear_196_4997" x1="33.8573" y1="33.98" x2="33.8573" y2="59.7399" gradientUnits="userSpaceOnUse">
<stop stop-color="#00FFF0"/>
<stop offset="1" stop-color="#FF00E6"/>
</linearGradient>
<linearGradient id="paint37_linear_196_4997" x1="35.8573" y1="31.9004" x2="35.934" y2="59.316" gradientUnits="userSpaceOnUse">
<stop offset="0.0759423" stop-color="#00FFF0"/>
<stop offset="0.387205" stop-color="#00F0FF"/>
<stop offset="0.644073" stop-color="#68ACFC"/>
<stop offset="0.845327" stop-color="#D852FF"/>
</linearGradient>
<linearGradient id="paint38_linear_196_4997" x1="43.8101" y1="33.1738" x2="34.3751" y2="54.8984" gradientUnits="userSpaceOnUse">
<stop stop-color="#00FFE0"/>
<stop offset="0.766" stop-color="#ECFFFD" stop-opacity="0"/>
</linearGradient>
<linearGradient id="paint39_linear_196_4997" x1="68.4871" y1="40.7573" x2="31.1652" y2="26.0705" gradientUnits="userSpaceOnUse">
<stop offset="0.147541" stop-color="#8D50EF"/>
<stop offset="1" stop-color="#82E1FF" stop-opacity="0"/>
<stop offset="1" stop-color="#EBFAFF"/>
</linearGradient>
<linearGradient id="paint40_linear_196_4997" x1="19.243" y1="27.7984" x2="19.243" y2="80.4982" gradientUnits="userSpaceOnUse">
<stop stop-color="#5ED8FF"/>
<stop offset="1" stop-color="#82E1FF" stop-opacity="0"/>
</linearGradient>
<linearGradient id="paint41_linear_196_4997" x1="4.55617" y1="30.2173" x2="16.1329" y2="56.308" gradientUnits="userSpaceOnUse">
<stop offset="0.317076" stop-color="#41DFF5"/>
<stop offset="1" stop-color="#00DFFF" stop-opacity="0"/>
</linearGradient>
<linearGradient id="paint42_linear_196_4997" x1="19.243" y1="29.3053" x2="19.243" y2="78.943" gradientUnits="userSpaceOnUse">
<stop stop-color="#5ED8FF"/>
<stop offset="1" stop-color="#82E1FF" stop-opacity="0"/>
</linearGradient>
<linearGradient id="paint43_linear_196_4997" x1="19.1915" y1="7.01236" x2="53.6458" y2="41.4666" gradientUnits="userSpaceOnUse">
<stop stop-color="#DDDFFF"/>
<stop offset="0.826452" stop-color="#0539C0"/>
</linearGradient>
<linearGradient id="paint44_linear_196_4997" x1="36.176" y1="37.8198" x2="36.176" y2="80.6708" gradientUnits="userSpaceOnUse">
<stop offset="0.595" stop-color="white"/>
<stop offset="1" stop-color="white" stop-opacity="0"/>
</linearGradient>
<linearGradient id="paint45_linear_196_4997" x1="62.4396" y1="36.2648" x2="54.3186" y2="67.5392" gradientUnits="userSpaceOnUse">
<stop offset="0.0195024" stop-color="#4B7DFF" stop-opacity="0.08"/>
<stop offset="1" stop-color="#0E1E47" stop-opacity="0"/>
</linearGradient>
<linearGradient id="paint46_linear_196_4997" x1="25.8089" y1="40.4116" x2="9.91254" y2="69.7853" gradientUnits="userSpaceOnUse">
<stop stop-color="#12D2FF" stop-opacity="0.3"/>
<stop offset="1" stop-color="#10D1FF" stop-opacity="0"/>
</linearGradient>
<linearGradient id="paint47_linear_196_4997" x1="10.2581" y1="26.5886" x2="-0.28184" y2="49.9147" gradientUnits="userSpaceOnUse">
<stop stop-color="#1ED1FF" stop-opacity="0.15"/>
<stop offset="0.596" stop-color="#26D3FF" stop-opacity="0"/>
</linearGradient>
<radialGradient id="paint48_radial_196_4997" cx="0" cy="0" r="1" gradientUnits="userSpaceOnUse" gradientTransform="translate(37.3195 17.4555) rotate(53.1301) scale(2.59179)">
<stop offset="0.335502" stop-color="#0CC5FF"/>
<stop offset="1" stop-color="#0371FA"/>
</radialGradient>
<radialGradient id="paint49_radial_196_4997" cx="0" cy="0" r="1" gradientUnits="userSpaceOnUse" gradientTransform="translate(37.4923 17.801) rotate(100.305) scale(1.93181)">
<stop stop-color="#44FFFF"/>
<stop offset="1" stop-color="#00FFFF" stop-opacity="0"/>
</radialGradient>
<linearGradient id="paint50_linear_196_4997" x1="38.1834" y1="16.7643" x2="37.3195" y2="17.8011" gradientUnits="userSpaceOnUse">
<stop offset="0.231557" stop-color="white"/>
<stop offset="1" stop-color="white" stop-opacity="0"/>
</linearGradient>
<linearGradient id="paint51_linear_196_4997" x1="34.7277" y1="19.5288" x2="37.6651" y2="20.9111" gradientUnits="userSpaceOnUse">
<stop stop-color="white" stop-opacity="0"/>
<stop offset="0.5" stop-color="white"/>
<stop offset="1" stop-color="white" stop-opacity="0"/>
</linearGradient>
<linearGradient id="paint52_linear_196_4997" x1="34.7277" y1="19.5288" x2="37.6651" y2="20.9111" gradientUnits="userSpaceOnUse">
<stop stop-color="white" stop-opacity="0"/>
<stop offset="0.5" stop-color="white"/>
<stop offset="1" stop-color="white" stop-opacity="0"/>
</linearGradient>
<radialGradient id="paint53_radial_196_4997" cx="0" cy="0" r="1" gradientUnits="userSpaceOnUse" gradientTransform="translate(66.0754 41.3334) rotate(53.1301) scale(1.55508)">
<stop offset="0.335502" stop-color="#0CC5FF"/>
<stop offset="1" stop-color="#0371FA"/>
</radialGradient>
<radialGradient id="paint54_radial_196_4997" cx="0" cy="0" r="1" gradientUnits="userSpaceOnUse" gradientTransform="translate(66.1791 41.5408) rotate(100.305) scale(1.15909)">
<stop stop-color="#44FFFF"/>
<stop offset="1" stop-color="#00FFFF" stop-opacity="0"/>
</radialGradient>
<linearGradient id="paint55_linear_196_4997" x1="66.5938" y1="40.9189" x2="66.0754" y2="41.5409" gradientUnits="userSpaceOnUse">
<stop offset="0.231557" stop-color="white"/>
<stop offset="1" stop-color="white" stop-opacity="0"/>
</linearGradient>
<linearGradient id="paint56_linear_196_4997" x1="64.5204" y1="42.5775" x2="66.2828" y2="43.4069" gradientUnits="userSpaceOnUse">
<stop stop-color="white" stop-opacity="0"/>
<stop offset="0.5" stop-color="white"/>
<stop offset="1" stop-color="white" stop-opacity="0"/>
</linearGradient>
<linearGradient id="paint57_linear_196_4997" x1="64.5204" y1="42.5775" x2="66.2828" y2="43.4069" gradientUnits="userSpaceOnUse">
<stop stop-color="white" stop-opacity="0"/>
<stop offset="0.5" stop-color="white"/>
<stop offset="1" stop-color="white" stop-opacity="0"/>
</linearGradient>
<radialGradient id="paint58_radial_196_4997" cx="0" cy="0" r="1" gradientUnits="userSpaceOnUse" gradientTransform="translate(27.6749 5.57782) rotate(53.1301) scale(1.55508)">
<stop offset="0.335502" stop-color="#0CC5FF"/>
<stop offset="1" stop-color="#0371FA"/>
</radialGradient>
<radialGradient id="paint59_radial_196_4997" cx="0" cy="0" r="1" gradientUnits="userSpaceOnUse" gradientTransform="translate(27.7786 5.78516) rotate(100.305) scale(1.15909)">
<stop stop-color="#44FFFF"/>
<stop offset="1" stop-color="#00FFFF" stop-opacity="0"/>
</radialGradient>
<linearGradient id="paint60_linear_196_4997" x1="28.1933" y1="5.16324" x2="27.6749" y2="5.78527" gradientUnits="userSpaceOnUse">
<stop offset="0.231557" stop-color="white"/>
<stop offset="1" stop-color="white" stop-opacity="0"/>
</linearGradient>
<linearGradient id="paint61_linear_196_4997" x1="26.1199" y1="6.82189" x2="27.8823" y2="7.65127" gradientUnits="userSpaceOnUse">
<stop stop-color="white" stop-opacity="0"/>
<stop offset="0.5" stop-color="white"/>
<stop offset="1" stop-color="white" stop-opacity="0"/>
</linearGradient>
<linearGradient id="paint62_linear_196_4997" x1="26.1199" y1="6.82189" x2="27.8823" y2="7.65127" gradientUnits="userSpaceOnUse">
<stop stop-color="white" stop-opacity="0"/>
<stop offset="0.5" stop-color="white"/>
<stop offset="1" stop-color="white" stop-opacity="0"/>
</linearGradient>
</defs>
</svg>
