<svg width="48" height="48" viewBox="0 0 48 48" fill="none" xmlns="http://www.w3.org/2000/svg">
<rect width="48" height="48" fill="#032041" fill-opacity="0.8"/>
<rect x="1" y="1" width="46" height="46" stroke="#A6DFFF" stroke-opacity="0.2" stroke-width="2"/>
<rect width="2" height="2" fill="#D9D9D9"/>
<rect x="46" width="2" height="2" fill="#D9D9D9"/>
<rect x="46" y="46" width="2" height="2" fill="#D9D9D9"/>
<rect y="46" width="2" height="2" fill="#D9D9D9"/>
<path fill-rule="evenodd" clip-rule="evenodd" d="M34.0987 16.6416C34.0987 25.4519 24.2078 33.9299 24.2078 33.9299C24.2078 33.9299 14.3169 25.7844 14.3169 16.6416C14.3169 11.3221 18.8052 7 24.2078 7C29.6104 7 34.0156 11.3221 34.0987 16.6416ZM24.2078 11.4883C21.2156 11.4883 18.8052 13.8987 18.8052 16.8909C18.8052 19.8 21.2156 22.2935 24.2078 22.2935C27.2 22.2935 29.6104 19.8831 29.6104 16.8909C29.6104 13.8987 27.2 11.4883 24.2078 11.4883ZM31.474 29.3935C31.6521 29.1627 31.8331 28.9282 32.0208 28.6936C37.5896 29.1923 41.413 30.5222 41.413 33.5975C41.413 37.7533 30.9403 38.917 24.7065 38.917C18.4727 38.917 8 37.8365 8 33.5975C8 30.6884 11.0753 29.4417 16.2286 28.8598L16.2287 28.86C16.8936 29.6911 17.5585 30.5222 18.1403 31.1871C11.8234 31.6858 10.7429 33.0157 10.4935 33.6806C10.7429 34.4287 15.3974 36.5066 24.6234 36.4235C33.8493 36.4235 38.5039 34.4287 38.8364 33.5975C38.5039 32.8494 37.0078 31.4365 30.1091 31.0209C30.5864 30.5436 31.0208 29.9806 31.474 29.3935Z" fill="url(#paint0_linear_946_8911)"/>
<defs>
<linearGradient id="paint0_linear_946_8911" x1="24.7065" y1="11.1642" x2="24.7065" y2="33.93" gradientUnits="userSpaceOnUse">
<stop stop-color="#EFF7FF"/>
<stop offset="1" stop-color="#93DEFF"/>
</linearGradient>
</defs>
</svg>
